<svg version="1.1" id="Layer_1" xmlns="http://www.w3.org/2000/svg" xmlns:xlink="http://www.w3.org/1999/xlink" x="0px" y="0px"
	 width="100%" viewBox="0 0 4096 1389" enable-background="new 0 0 4096 1389" xml:space="preserve">
<path fill="#275D38" opacity="1.000000" stroke="none" 
	d="
M2820.000000,1392.000000 
	C1880.000000,1392.000000 941.000000,1392.000000 2.000000,1392.000000 
	C2.000000,928.666687 2.000000,465.333344 2.000000,2.000000 
	C1367.333374,2.000000 2732.666748,2.000000 4098.000000,2.000000 
	C4098.000000,465.333344 4098.000000,928.666687 4098.000000,1392.000000 
	C3672.333252,1392.000000 3246.666748,1392.000000 2820.000000,1392.000000 
z"/>
<path fill="#FEFFFF" opacity="1.000000" stroke="none" 
	d="
M1064.814941,790.000610 
	C1064.810791,822.657593 1064.842529,854.314697 1064.794189,885.971619 
	C1064.720093,934.558594 1048.155273,976.538269 1013.953186,1011.215820 
	C980.537231,1045.096313 939.531982,1061.710571 892.297668,1063.709717 
	C888.637817,1063.864502 884.967773,1063.801636 881.302429,1063.801758 
	C702.023804,1063.805420 522.745117,1063.817993 343.466492,1063.778076 
	C330.471802,1063.775269 331.680542,1065.716187 331.678833,1052.188110 
	C331.655823,871.243286 331.765045,690.298340 331.598846,509.353729 
	C331.554840,461.473358 347.082336,419.838562 380.026398,385.109619 
	C413.248138,350.087921 454.475006,332.301666 502.583862,330.222748 
	C506.576233,330.050232 510.580078,330.117950 514.578613,330.117859 
	C693.857239,330.113495 873.135925,330.097076 1052.414551,330.147308 
	C1066.139893,330.151154 1064.791016,327.962677 1064.794189,342.136658 
	C1064.827515,491.091278 1064.814819,640.045898 1064.814941,790.000610 
z"/>
<path fill="#FDFEFD" opacity="1.000000" stroke="none" 
	d="
M1585.153687,847.172180 
	C1564.801392,866.559265 1540.287598,875.299316 1513.962280,879.967224 
	C1501.456299,882.184875 1488.797485,882.593384 1476.110352,882.577209 
	C1433.443848,882.522827 1390.777466,882.557129 1348.110962,882.555542 
	C1345.777710,882.555420 1343.443237,882.483459 1341.111694,882.541199 
	C1337.849121,882.621887 1336.152344,881.274658 1336.317627,877.831482 
	C1336.429443,875.503967 1336.316895,873.166016 1336.316895,870.832703 
	C1336.316284,753.499939 1336.303345,636.167175 1336.337158,518.834412 
	C1336.340698,506.661255 1334.755005,507.568970 1347.577026,507.605072 
	C1391.241089,507.728119 1434.915039,507.412140 1478.564697,508.288116 
	C1501.536499,508.749084 1524.289185,512.080139 1546.300049,519.561768 
	C1592.604980,535.301025 1605.820190,568.056213 1605.069336,606.555359 
	C1604.754272,622.715027 1601.419922,638.289734 1592.779785,652.342529 
	C1583.282471,667.789612 1570.280640,678.454956 1552.260376,682.413940 
	C1551.007446,682.689209 1549.834473,683.364624 1548.658813,683.926208 
	C1548.411987,684.044189 1548.317383,684.480835 1548.107544,684.849609 
	C1549.473755,687.665466 1552.378174,687.419495 1554.798828,688.071228 
	C1563.207764,690.335144 1571.159058,693.699097 1578.674194,698.065125 
	C1594.747803,707.403320 1605.013550,721.268799 1610.033813,739.037415 
	C1615.284180,757.620544 1615.772827,776.471375 1612.652222,795.462891 
	C1609.354126,815.534912 1600.328857,832.596375 1585.153687,847.172180 
z"/>
<path fill="#FEFEFE" opacity="1.000000" stroke="none" 
	d="
M3575.999512,882.552979 
	C3550.679443,882.552795 3526.359619,882.547546 3502.039551,882.554810 
	C3492.880859,882.557495 3493.404541,882.978699 3493.404541,873.811401 
	C3493.405029,798.186096 3493.404297,722.560791 3493.404053,646.935486 
	C3493.403809,604.625305 3493.403320,562.315125 3493.404297,520.004944 
	C3493.404297,517.672913 3493.530762,515.333862 3493.391602,513.010437 
	C3493.174805,509.395996 3494.273926,507.174408 3498.374756,507.601898 
	C3499.033447,507.670532 3499.706299,507.593109 3500.372559,507.597137 
	C3545.677979,507.870728 3590.999512,506.656677 3636.284668,508.262665 
	C3658.590332,509.053741 3680.697266,512.076355 3702.075684,519.172729 
	C3748.930664,534.725769 3766.006592,569.418640 3761.048584,617.357117 
	C3759.591309,631.447876 3755.199463,644.682251 3746.975098,656.399597 
	C3737.849854,669.400513 3725.892334,678.451233 3710.222900,682.155457 
	C3708.303711,682.609131 3706.218506,682.659302 3704.734375,684.668335 
	C3705.615479,687.177734 3708.091797,687.152649 3710.102295,687.800110 
	C3713.893311,689.020996 3717.774170,689.994263 3721.496094,691.392944 
	C3747.624023,701.211304 3763.521484,719.674683 3768.840332,747.237305 
	C3772.099365,764.125549 3772.609863,781.007690 3769.092773,797.844360 
	C3761.633545,833.553711 3738.890869,856.240784 3706.272705,870.007690 
	C3684.169189,879.336670 3660.811279,882.494080 3636.966553,882.542603 
	C3616.977539,882.583252 3596.988770,882.552246 3575.999512,882.552979 
z"/>
<path fill="#FDFEFD" opacity="1.000000" stroke="none" 
	d="
M2722.008301,882.559082 
	C2713.677734,882.553040 2706.342285,882.425476 2699.013428,882.591064 
	C2695.208496,882.677063 2693.472412,881.303040 2693.780273,877.391235 
	C2693.962646,875.072815 2693.802246,872.727600 2693.802246,870.394470 
	C2693.801758,753.402832 2693.780273,636.411133 2693.831299,519.419495 
	C2693.837158,505.994019 2692.013428,507.678772 2705.349609,507.612823 
	C2725.347656,507.513916 2745.346680,507.544281 2765.344971,507.609375 
	C2773.366699,507.635498 2773.472168,507.743652 2773.479736,515.984436 
	C2773.518311,557.648132 2773.496826,599.311829 2773.497314,640.975525 
	C2773.497314,643.308655 2773.698730,645.662231 2773.460938,647.970642 
	C2772.986328,652.578369 2774.470947,654.696106 2779.511963,654.371582 
	C2785.486572,653.986877 2791.505371,654.284668 2797.504883,654.284729 
	C2835.502197,654.285095 2873.499512,654.298096 2911.496826,654.277039 
	C2923.153564,654.270569 2921.868652,655.114624 2921.877686,644.285217 
	C2921.912598,602.621521 2921.891357,560.957825 2921.894287,519.294128 
	C2921.894287,516.627930 2921.936523,513.961731 2921.934814,511.295532 
	C2921.933105,508.835754 2923.213135,507.685913 2925.598389,507.643738 
	C2927.264404,507.614258 2928.931152,507.590424 2930.597412,507.590149 
	C2951.262695,507.586426 2971.927734,507.553711 2992.593018,507.603455 
	C3001.279785,507.624359 3001.374023,507.704681 3001.381592,516.346741 
	C3001.417725,557.677124 3001.398438,599.007507 3001.398682,640.337891 
	C3001.398926,717.332397 3001.410156,794.326904 3001.386475,871.321411 
	C3001.382812,883.314026 3002.779053,882.548157 2990.056396,882.555725 
	C2970.057861,882.567688 2950.059082,882.598083 2930.060547,882.538391 
	C2922.013916,882.514404 2921.914795,882.415405 2921.908936,874.315796 
	C2921.874756,828.319092 2921.892090,782.322327 2921.892090,736.325623 
	C2921.892090,733.992432 2921.915039,731.658997 2921.887451,729.326172 
	C2921.784424,720.675903 2921.778076,720.582214 2913.104736,720.575378 
	C2869.441162,720.541016 2825.777588,720.540833 2782.114014,720.575928 
	C2773.607422,720.582764 2773.520264,720.679688 2773.514404,729.499573 
	C2773.482910,775.829590 2773.499268,822.159668 2773.499023,868.489685 
	C2773.499023,870.822876 2773.554443,873.157715 2773.484863,875.488892 
	C2773.280762,882.335876 2773.262207,882.475952 2766.000732,882.527466 
	C2751.669678,882.629089 2737.337646,882.558411 2722.008301,882.559082 
z"/>
<path fill="#FDFEFD" opacity="1.000000" stroke="none" 
	d="
M2346.490479,671.999634 
	C2346.490723,620.687012 2346.490723,570.374390 2346.490967,520.061829 
	C2346.490967,518.062622 2346.659912,516.046936 2346.462402,514.067566 
	C2346.004639,509.478485 2347.599854,507.470551 2352.560303,507.524261 
	C2395.869385,507.992889 2439.209229,506.378174 2482.483398,508.475861 
	C2503.775879,509.507996 2524.739258,513.342285 2544.734131,521.553101 
	C2579.205811,535.708801 2598.880127,561.137451 2604.225586,597.897827 
	C2605.911377,609.490356 2606.703369,621.106018 2605.184570,632.748718 
	C2600.901611,665.580750 2584.031494,690.370728 2556.415039,708.090149 
	C2550.267822,712.034302 2543.770264,715.432617 2536.458496,719.644348 
	C2572.712402,773.377075 2608.927979,827.053040 2645.034180,880.566772 
	C2642.692383,883.503479 2640.197266,882.500366 2638.059326,882.507202 
	C2614.069336,882.584351 2590.076172,882.346680 2566.091309,882.700012 
	C2559.909912,882.790955 2556.664551,880.461243 2553.531738,875.374512 
	C2526.990479,832.280945 2500.054199,789.430542 2473.549072,746.314941 
	C2469.977051,740.504089 2466.146729,737.885498 2459.234375,738.408813 
	C2450.951904,739.035889 2442.584961,738.491699 2434.256104,738.576660 
	C2426.311523,738.657593 2426.209961,738.726379 2426.202148,747.039368 
	C2426.163818,788.022461 2426.253906,829.005737 2426.146484,869.988525 
	C2426.108643,884.393188 2428.327881,882.432922 2413.381104,882.528137 
	C2394.722900,882.647034 2376.063477,882.550354 2357.404541,882.559021 
	C2345.248047,882.564697 2346.498779,883.060242 2346.496094,871.917236 
	C2346.479736,805.611389 2346.489502,739.305481 2346.490479,671.999634 
z"/>
<path fill="#FDFEFD" opacity="1.000000" stroke="none" 
	d="
M2212.320312,878.231445 
	C2204.230957,851.635010 2196.193359,825.904236 2188.637939,800.032654 
	C2187.133545,794.881531 2184.861328,793.239136 2179.658691,793.261230 
	C2138.665771,793.435120 2097.671387,793.428955 2056.678223,793.269592 
	C2051.557373,793.249695 2049.126465,794.727417 2047.601807,799.948303 
	C2040.140381,825.499939 2032.093628,850.880188 2024.498535,876.393921 
	C2023.296387,880.432251 2021.907715,882.672668 2017.203857,882.633728 
	C1991.543823,882.421143 1965.881714,882.476501 1940.220337,882.400330 
	C1939.608398,882.398560 1938.997681,881.936279 1938.348145,881.673279 
	C1937.206909,878.122253 1939.409912,875.204834 1940.464722,872.198242 
	C1982.327637,752.870483 2024.287598,633.576843 2066.241455,514.281067 
	C2069.149658,506.011658 2069.173584,505.980988 2078.070557,505.973877 
	C2104.066650,505.953125 2130.062500,505.962921 2156.058594,505.968201 
	C2166.580322,505.970337 2166.585449,505.977325 2169.982422,515.602295 
	C2197.893799,594.682739 2225.814941,673.759766 2253.707764,752.846680 
	C2268.096680,793.644653 2282.430176,834.462036 2296.808105,875.263916 
	C2297.469238,877.140320 2298.453857,878.918762 2298.141113,881.098450 
	C2296.553955,883.590698 2293.980225,882.495178 2291.866211,882.503113 
	C2268.536865,882.590515 2245.206787,882.599670 2221.877441,882.511475 
	C2218.454102,882.498535 2214.262207,883.917847 2212.320312,878.231445 
z"/>
<path fill="#FEFEFE" opacity="1.000000" stroke="none" 
	d="
M3093.497803,573.999634 
	C3093.497803,554.342834 3093.483154,535.686096 3093.504150,517.029358 
	C3093.515381,507.044495 3092.727051,507.593811 3102.424072,507.592560 
	C3122.746582,507.589874 3143.069092,507.588989 3163.391602,507.592865 
	C3173.110352,507.594696 3172.474854,506.963104 3172.475586,516.863525 
	C3172.482178,588.825256 3172.487549,660.786987 3172.474854,732.748718 
	C3172.472656,745.434631 3173.270508,758.038574 3175.960693,770.472534 
	C3181.868164,797.773926 3198.032471,814.562134 3225.995117,819.177734 
	C3242.263184,821.862976 3258.506836,821.807922 3274.595947,817.959839 
	C3293.750000,813.378723 3307.150879,802.065125 3314.429932,783.579102 
	C3320.267090,768.754700 3321.961670,753.299072 3321.966797,737.555359 
	C3321.989990,665.260498 3321.986328,592.965637 3321.993408,520.670776 
	C3321.993652,518.005554 3322.162598,515.328857 3321.971680,512.677734 
	C3321.681885,508.652374 3323.656982,507.489868 3327.344482,507.559845 
	C3334.671143,507.698883 3342.002686,507.591858 3349.332031,507.591980 
	C3364.657227,507.592224 3379.983643,507.716339 3395.306396,507.526489 
	C3400.020020,507.468109 3402.165283,509.037872 3401.585205,513.878235 
	C3401.388184,515.520142 3401.558594,517.205994 3401.558594,518.871765 
	C3401.558105,594.165039 3401.548828,669.458374 3401.564453,744.751648 
	C3401.567383,759.118408 3400.646484,773.417725 3397.108154,787.368225 
	C3386.560547,828.954041 3361.740479,858.654175 3321.607178,874.149963 
	C3273.165527,892.853638 3223.681396,893.694641 3175.103516,875.761536 
	C3124.329834,857.017700 3098.669189,818.165405 3094.069824,764.883545 
	C3093.355225,756.605103 3093.526611,748.238525 3093.520020,739.912537 
	C3093.477295,684.941589 3093.497803,629.970581 3093.497803,573.999634 
z"/>
<path fill="#FDFEFD" opacity="1.000000" stroke="none" 
	d="
M1891.145508,654.931885 
	C1894.263428,655.045166 1896.090576,655.731506 1896.097412,658.294189 
	C1896.149048,677.621643 1896.124512,696.949280 1896.184937,716.276733 
	C1896.194824,719.441589 1894.457520,720.196533 1891.755005,720.119507 
	C1889.424561,720.052979 1887.090210,720.123047 1884.757568,720.123169 
	C1849.767090,720.124329 1814.776489,720.091919 1779.786011,720.143188 
	C1768.980835,720.158997 1769.307495,718.512146 1769.303711,730.041992 
	C1769.295532,755.701660 1769.284180,781.361389 1769.308228,807.021057 
	C1769.318115,817.484619 1768.453979,816.893311 1778.909912,816.897034 
	C1817.566040,816.910828 1856.222290,816.911743 1894.878418,816.898071 
	C1907.550171,816.893616 1905.761475,816.760559 1905.807739,827.504944 
	C1905.875366,843.167053 1905.866943,858.829895 1905.806885,874.492065 
	C1905.776733,882.344666 1905.692993,882.523010 1898.407349,882.527954 
	C1831.092285,882.573608 1763.777100,882.508484 1696.462280,882.639709 
	C1691.369141,882.649597 1688.995850,881.255554 1689.703247,875.919373 
	C1689.963745,873.954529 1689.742554,871.926025 1689.742554,869.926575 
	C1689.742432,753.291565 1689.742554,636.656616 1689.742554,520.021606 
	C1689.742554,518.688599 1689.728516,517.355469 1689.745361,516.022644 
	C1689.850586,507.676147 1689.853027,507.603638 1698.663696,507.600586 
	C1761.979858,507.578552 1825.296021,507.588196 1888.612183,507.588654 
	C1892.611084,507.588684 1896.614746,507.719299 1900.607544,507.565308 
	C1904.426758,507.418030 1905.891602,508.984436 1905.865601,512.849548 
	C1905.742554,531.177063 1905.766479,549.505920 1905.842407,567.833923 
	C1905.856567,571.269836 1904.342529,572.634399 1901.062988,572.541931 
	C1898.732422,572.476196 1896.398193,572.556213 1894.065552,572.556335 
	C1856.742310,572.558105 1819.419189,572.557434 1782.095947,572.558044 
	C1779.763306,572.558105 1777.418823,572.715454 1775.100464,572.535522 
	C1770.765625,572.198975 1769.187744,574.147705 1769.264038,578.380005 
	C1769.426147,587.374573 1769.303101,596.374146 1769.301758,605.371704 
	C1769.299805,618.701416 1769.296387,632.031128 1769.303955,645.360840 
	C1769.309692,655.605530 1768.758789,654.893799 1779.249756,654.898071 
	C1816.239624,654.912964 1853.229614,654.909180 1891.145508,654.931885 
z"/>
<path fill="#295E39" opacity="1.000000" stroke="none" 
	d="
M644.956787,766.104736 
	C638.812988,749.957397 628.782593,738.225037 615.622192,728.273987 
	C598.366577,715.226379 582.074646,700.898987 565.465881,687.005127 
	C561.779785,683.921509 557.991455,682.103394 553.025818,681.607422 
	C527.835876,679.091187 502.929565,675.176941 478.677002,667.366150 
	C470.923798,664.869202 464.740570,661.785339 461.085754,654.332397 
	C459.783356,651.676636 457.867645,649.321716 455.873383,646.283142 
	C462.115143,640.610413 469.622650,637.046387 476.764832,633.156860 
	C483.301880,629.596863 488.120239,625.283081 489.371216,617.701538 
	C490.411560,611.396362 494.156067,607.197815 499.238129,603.439209 
	C512.357971,593.736084 525.106262,583.531799 538.066589,573.610840 
	C540.655701,571.628967 542.882568,569.044434 546.047974,568.107727 
	C548.064270,568.582764 547.646362,570.129272 547.678894,571.328186 
	C548.037537,584.525269 548.102600,583.623657 560.769043,584.720581 
	C585.743042,586.883484 608.994751,582.179199 630.771484,569.998474 
	C636.988831,566.520813 643.098328,566.479675 649.873474,568.210938 
	C662.761353,571.504456 675.836487,574.058350 688.790588,577.103699 
	C692.777832,578.041016 696.611572,578.223694 700.625183,577.365479 
	C727.661072,571.584167 754.854065,566.908386 782.488525,564.939636 
	C792.217041,564.246582 801.821228,564.646240 811.353088,566.178589 
	C820.057495,567.577881 827.784058,571.587402 834.468384,577.328308 
	C853.770874,593.906250 868.614685,613.813965 876.847168,637.967041 
	C897.240479,697.798401 917.190674,757.780884 937.211487,817.738464 
	C938.328064,821.082520 940.394165,824.340576 939.663330,828.764404 
	C918.506775,828.764404 897.498169,828.764404 875.304077,828.764404 
	C880.596802,822.040588 888.526550,819.380127 892.232361,811.974487 
	C889.876709,809.248291 886.620361,808.340454 883.737915,807.006714 
	C850.814575,791.773254 818.338623,775.695190 786.551758,758.161133 
	C761.571167,744.381470 734.640442,735.879456 706.242249,732.332397 
	C705.581299,732.249817 704.916138,732.200684 704.252563,732.139954 
	C695.364380,731.325684 695.293152,731.325439 695.247986,739.987183 
	C695.181946,752.648315 694.842712,765.324829 695.327637,777.967651 
	C695.935486,793.816956 691.854797,809.011047 689.849670,824.494751 
	C689.449097,827.587891 688.091187,829.338074 684.761230,829.332092 
	C666.573181,829.299377 648.385071,829.316528 629.243469,827.537598 
	C633.560425,823.164124 637.811768,818.723022 642.221802,814.445496 
	C644.449707,812.284546 646.105408,810.149353 645.995850,806.752686 
	C645.566589,793.450195 646.634155,780.122742 644.956787,766.104736 
z"/>
<path fill="#2B603C" opacity="1.000000" stroke="none" 
	d="
M618.597412,765.127502 
	C615.896667,785.456970 615.897095,785.457581 599.785034,796.804443 
	C586.460999,806.187866 573.054199,815.457153 559.858215,825.017395 
	C555.620605,828.087524 551.360779,829.574158 546.058899,829.473206 
	C531.090332,829.188232 516.112671,829.403931 501.139008,829.334961 
	C499.290741,829.326416 497.203888,830.079895 494.669861,827.373535 
	C499.897308,823.428162 504.940735,819.394714 510.223694,815.704163 
	C514.683411,812.588623 518.040039,808.750610 520.756775,804.009766 
	C532.493408,783.528931 544.374573,763.128967 556.427612,742.832825 
	C558.911804,738.649658 560.086060,734.525940 559.953430,729.684265 
	C559.702148,720.514832 559.880676,711.333618 559.880676,702.291504 
	C563.681519,701.732849 564.961975,704.074402 566.673767,705.434326 
	C582.563538,718.057068 598.245422,730.947144 614.320129,743.327942 
	C619.349060,747.201294 622.234924,750.994934 620.054016,757.458862 
	C619.318298,759.639221 619.169861,762.017700 618.597412,765.127502 
z"/>
<path fill="#2B603C" opacity="1.000000" stroke="none" 
	d="
M783.254639,822.964966 
	C768.837341,822.964966 755.334534,822.964966 740.294800,822.964966 
	C745.313843,816.938354 751.337036,815.206360 756.127747,810.211975 
	C742.528564,790.672668 728.791565,770.935364 713.663147,749.198853 
	C726.511108,752.016541 737.527588,752.402771 747.550964,756.757935 
	C767.021606,765.217896 786.262146,774.209778 805.558838,783.066650 
	C811.791565,785.927368 811.787476,786.075012 808.713867,792.405945 
	C805.090393,799.869324 800.944763,807.111450 797.812561,814.771301 
	C795.144653,821.295898 791.094238,824.182495 783.254639,822.964966 
z"/>
<path fill="#295E39" opacity="1.000000" stroke="none" 
	d="
M1490.142578,721.440369 
	C1493.266968,722.085876 1495.584717,722.412964 1497.817871,723.041199 
	C1523.635864,730.305359 1535.719727,749.436890 1531.367310,776.078613 
	C1528.019165,796.573547 1515.955811,809.357971 1495.536255,814.067505 
	C1487.063232,816.021790 1478.467529,816.888794 1469.786865,816.905945 
	C1454.134521,816.936890 1438.480347,816.781860 1422.830688,816.985474 
	C1417.829834,817.050598 1415.840820,815.655701 1415.888672,810.222351 
	C1416.138306,781.917053 1416.020264,753.608337 1415.984619,725.300842 
	C1415.980591,722.068298 1416.065430,719.233215 1420.505859,719.366943 
	C1443.434326,720.057373 1466.449097,717.592285 1490.142578,721.440369 
z"/>
<path fill="#2A5F3B" opacity="1.000000" stroke="none" 
	d="
M1488.383789,575.285706 
	C1491.771362,576.187317 1494.380493,576.749573 1496.911377,577.556702 
	C1523.135498,585.918945 1532.845947,618.329529 1515.543091,639.868530 
	C1508.393555,648.768311 1498.148315,651.998779 1487.567017,653.813416 
	C1465.419189,657.611816 1443.015625,655.467651 1420.723755,656.007507 
	C1416.385254,656.112549 1415.959839,653.700439 1415.968140,650.305115 
	C1416.026367,626.313538 1415.999023,602.321777 1415.999634,578.330078 
	C1415.999634,577.996948 1416.028931,577.662720 1416.011230,577.330811 
	C1415.833618,573.997437 1417.374512,572.500061 1420.742188,572.544739 
	C1443.038818,572.841003 1465.399536,571.379822 1488.383789,575.285706 
z"/>
<path fill="#295F3A" opacity="1.000000" stroke="none" 
	d="
M3615.988770,719.333984 
	C3628.644775,719.336792 3640.324707,719.452393 3651.708740,722.289062 
	C3667.974121,726.342163 3681.715088,733.850586 3686.552002,751.416931 
	C3690.186523,764.616577 3689.552002,777.844910 3683.888184,790.446167 
	C3677.958984,803.637451 3666.747070,810.331421 3653.315430,813.867371 
	C3645.885986,815.823242 3638.248047,816.740234 3630.601562,816.840454 
	C3613.630127,817.062927 3596.653320,817.001221 3579.679688,816.895752 
	C3572.836426,816.853271 3572.681885,816.663452 3572.664062,809.399414 
	C3572.595947,781.774597 3572.590576,754.149353 3572.671143,726.524597 
	C3572.691650,719.574768 3572.877441,719.438110 3580.044678,719.366516 
	C3591.692871,719.250244 3603.342529,719.333923 3615.988770,719.333984 
z"/>
<path fill="#2B603C" opacity="1.000000" stroke="none" 
	d="
M3584.348145,655.992554 
	C3583.060791,655.992432 3582.727539,655.987915 3582.394531,655.993103 
	C3572.217773,656.152954 3572.609863,656.555359 3572.617432,646.261597 
	C3572.633301,624.275879 3572.571533,602.290039 3572.652100,580.304626 
	C3572.679688,572.715820 3572.829102,572.548096 3580.472168,572.559570 
	C3599.119629,572.587524 3617.783691,571.970032 3636.393066,573.853638 
	C3645.079102,574.732849 3653.431396,576.848206 3661.373779,580.424927 
	C3670.050781,584.332581 3675.906250,590.848389 3678.456543,600.096558 
	C3681.470703,611.026428 3680.982422,621.824158 3676.772705,632.382446 
	C3673.353027,640.958618 3666.846191,646.373657 3658.499023,649.788940 
	C3647.856445,654.143311 3636.612793,655.498779 3625.273682,655.786926 
	C3611.956787,656.125488 3598.626953,655.946899 3584.348145,655.992554 
z"/>
<path fill="#2A5F3B" opacity="1.000000" stroke="none" 
	d="
M2492.319824,668.566528 
	C2471.491211,675.403320 2450.732666,673.757690 2430.126465,673.946350 
	C2427.098633,673.974060 2426.078369,672.262390 2426.184814,669.505920 
	C2426.223389,668.508179 2426.167236,667.507019 2426.167236,666.507446 
	C2426.165771,637.850220 2426.130859,609.192993 2426.188721,580.535889 
	C2426.204346,572.747498 2426.333496,572.548279 2433.719238,572.575012 
	C2453.355469,572.645996 2473.042969,572.097595 2492.224365,577.692139 
	C2514.724854,584.254822 2525.472656,597.929199 2525.632324,621.366882 
	C2525.789307,644.385925 2515.606445,661.656433 2492.319824,668.566528 
z"/>
<path fill="#2A5F3A" opacity="1.000000" stroke="none" 
	d="
M2126.829102,595.106567 
	C2140.398926,639.012817 2153.677490,682.169617 2167.185303,726.071777 
	C2134.552490,726.071777 2103.021484,726.071777 2070.128418,726.071777 
	C2086.032959,673.324890 2101.780029,621.099792 2117.527344,568.874756 
	C2118.023438,568.799011 2118.519775,568.723328 2119.015869,568.647644 
	C2121.523193,577.217407 2124.030762,585.787231 2126.829102,595.106567 
z"/>
</svg>